<svg xmlns="http://www.w3.org/2000/svg" xmlns:xlink="http://www.w3.org/1999/xlink" viewBox="0,0,256,256" width="500px" height="500px"><g fill-opacity="0" fill="#ffffff" fill-rule="nonzero" stroke="none" stroke-width="1" stroke-linecap="butt" stroke-linejoin="miter" stroke-miterlimit="10" stroke-dasharray="" stroke-dashoffset="0" font-family="none" font-weight="none" font-size="none" text-anchor="none" style="mix-blend-mode: normal"><path d="M0,256v-256h256v256z" id="bgRectangle"></path></g><g fill="#ffffff" fill-rule="nonzero" stroke="none" stroke-width="1" stroke-linecap="butt" stroke-linejoin="miter" stroke-miterlimit="10" stroke-dasharray="" stroke-dashoffset="0" font-family="none" font-weight="none" font-size="none" text-anchor="none" style="mix-blend-mode: normal"><g transform="scale(5.12,5.12)"><path d="M6,5c-0.552,0 -1,0.448 -1,1v38c0,0.552 0.448,1 1,1h25v-12h-13c-0.552,0 -1,-0.448 -1,-1v-14c0,-0.552 0.448,-1 1,-1h27v-11c0,-0.552 -0.448,-1 -1,-1zM19,19v12h13c0.552,0 1,0.448 1,1v13h11c0.552,0 1,-0.448 1,-1v-25z"></path></g></g></svg>